# xmcd
#
# Track frame offsets:
#	150
#	13413
#	47818
#	95134
#	153280
#	188347
#	244150
#
# Disc length: 4186 seconds
#
# Revision: 0
# Processed by: cddbd v1.5.2PL0 Copyright (c) Steve Scherf et al.
# Submitted via: audiograbber 1.83.01
#
DISCID=54105807
DTITLE=Grateful Dead - 93-02-22 Oakland Coliseum Arena, Oakland CA
DYEAR=1900
DGENRE=
TTITLE0=Tuning
TTITLE1=Saint Of Circumstance
TTITLE2=Scarlet Begonias
TTITLE3=Fire On The Mountain
TTITLE4=Wave To The Wind
TTITLE5=Drums
TTITLE6=Space
EXTD=
EXTT0=
EXTT1=
EXTT2=
EXTT3=
EXTT4=
EXTT5=
EXTT6=
PLAYORDER=
